<svg xmlns="http://www.w3.org/2000/svg" xmlns:xlink="http://www.w3.org/1999/xlink" width="2000" zoomAndPan="magnify" viewBox="0 0 1500 487.499991" height="650" preserveAspectRatio="xMidYMid meet" version="1.0"><defs><clipPath id="317595f0be"><path d="M 13.734375 385.511719 L 204.558594 385.511719 L 204.558594 393.191406 L 13.734375 393.191406 Z M 13.734375 385.511719 " clip-rule="nonzero"/></clipPath><clipPath id="8a4db2c7fa"><path d="M 0.734375 0.511719 L 191.558594 0.511719 L 191.558594 8.191406 L 0.734375 8.191406 Z M 0.734375 0.511719 " clip-rule="nonzero"/></clipPath><clipPath id="1601d4bd1e"><rect x="0" width="192" y="0" height="9"/></clipPath><clipPath id="a33cd1d33b"><path d="M 254.152344 361.105469 L 296.882812 361.105469 L 296.882812 415.636719 L 254.152344 415.636719 Z M 254.152344 361.105469 " clip-rule="nonzero"/></clipPath><clipPath id="5c75b02c2a"><path d="M 267.355469 408.195312 C 275.296875 408.195312 289.371094 403.140625 289.371094 403.140625 L 289.371094 388.960938 L 267.355469 390.558594 C 263.074219 390.945312 261.5 393.835938 261.5 397.007812 L 261.5 401.957031 C 261.5 406.726562 263.976562 408.222656 267.355469 408.222656 M 254.152344 396.386719 C 254.152344 388.445312 259.128906 383.1875 267.355469 383.1875 C 267.355469 383.1875 289.371094 383.289062 289.371094 383.1875 C 289.371094 383.1875 289.476562 376.636719 289.371094 376.535156 C 289.371094 370.476562 286.203125 368.386719 281.226562 368.386719 C 274.082031 368.386719 265.445312 368.878906 255.828125 369.574219 L 255.828125 364.234375 C 262.894531 362.277344 271.710938 361.375 281.535156 361.269531 C 289.757812 361.167969 296.71875 365.628906 296.71875 376.558594 L 296.71875 414.949219 L 291.253906 414.949219 L 289.371094 408.609375 C 289.167969 408.609375 276.378906 415.542969 267.355469 415.542969 C 260.109375 415.542969 254.152344 410.878906 254.152344 402.445312 Z M 254.152344 396.386719 " clip-rule="nonzero"/></clipPath><clipPath id="63c1bf7851"><path d="M 0.152344 0.105469 L 42.882812 0.105469 L 42.882812 54.636719 L 0.152344 54.636719 Z M 0.152344 0.105469 " clip-rule="nonzero"/></clipPath><clipPath id="1b84cb5ee9"><path d="M 13.355469 47.195312 C 21.296875 47.195312 35.371094 42.140625 35.371094 42.140625 L 35.371094 27.960938 L 13.355469 29.558594 C 9.074219 29.945312 7.5 32.835938 7.5 36.007812 L 7.5 40.957031 C 7.5 45.726562 9.976562 47.222656 13.355469 47.222656 M 0.152344 35.386719 C 0.152344 27.445312 5.128906 22.1875 13.355469 22.1875 C 13.355469 22.1875 35.371094 22.289062 35.371094 22.1875 C 35.371094 22.1875 35.476562 15.636719 35.371094 15.535156 C 35.371094 9.476562 32.203125 7.386719 27.226562 7.386719 C 20.082031 7.386719 11.445312 7.878906 1.828125 8.574219 L 1.828125 3.234375 C 8.894531 1.277344 17.710938 0.375 27.535156 0.269531 C 35.757812 0.167969 42.71875 4.628906 42.71875 15.558594 L 42.71875 53.949219 L 37.253906 53.949219 L 35.371094 47.609375 C 35.167969 47.609375 22.378906 54.542969 13.355469 54.542969 C 6.109375 54.542969 0.152344 49.878906 0.152344 41.445312 Z M 0.152344 35.386719 " clip-rule="nonzero"/></clipPath><clipPath id="96a308fefa"><rect x="0" width="43" y="0" height="55"/></clipPath><clipPath id="8f2b6a82b1"><path d="M 340.347656 361.769531 L 382.609375 361.769531 L 382.609375 415.585938 L 340.347656 415.585938 Z M 340.347656 361.769531 " clip-rule="nonzero"/></clipPath><clipPath id="3573172600"><path d="M 340.347656 374.867188 C 340.347656 366.71875 343.832031 361.769531 354.039062 361.769531 C 359.195312 361.769531 374.769531 362.851562 379.925781 363.339844 L 379.925781 369.011719 L 354.039062 369.011719 C 347.699219 369.011719 347.699219 371.488281 347.699219 374.867188 L 347.699219 379.429688 C 347.699219 384.894531 350.378906 385.074219 354.039062 385.074219 L 369.714844 385.074219 C 378.351562 385.074219 382.609375 390.4375 382.609375 397.890625 L 382.609375 402.738281 C 382.609375 413.539062 376.058594 415.449219 369.714844 415.449219 C 364.84375 415.449219 346.304688 413.953125 342.542969 413.566406 L 342.542969 408.101562 L 369.714844 408.101562 C 369.714844 408.101562 375.257812 408.691406 375.257812 402.738281 L 375.257812 397.890625 C 375.257812 394.410156 374.074219 392.421875 369.714844 392.421875 L 354.039062 392.421875 C 344.707031 392.421875 340.347656 389.640625 340.347656 379.429688 Z M 340.347656 374.867188 " clip-rule="nonzero"/></clipPath><clipPath id="d62a3b1a1d"><path d="M 0.347656 0.769531 L 42.609375 0.769531 L 42.609375 54.496094 L 0.347656 54.496094 Z M 0.347656 0.769531 " clip-rule="nonzero"/></clipPath><clipPath id="a8ccaf2f9b"><path d="M 0.347656 13.867188 C 0.347656 5.71875 3.832031 0.769531 14.039062 0.769531 C 19.195312 0.769531 34.769531 1.851562 39.925781 2.339844 L 39.925781 8.011719 L 14.039062 8.011719 C 7.699219 8.011719 7.699219 10.488281 7.699219 13.867188 L 7.699219 18.429688 C 7.699219 23.894531 10.378906 24.074219 14.039062 24.074219 L 29.714844 24.074219 C 38.351562 24.074219 42.609375 29.4375 42.609375 36.890625 L 42.609375 41.738281 C 42.609375 52.539062 36.058594 54.449219 29.714844 54.449219 C 24.84375 54.449219 6.304688 52.953125 2.542969 52.566406 L 2.542969 47.101562 L 29.714844 47.101562 C 29.714844 47.101562 35.257812 47.691406 35.257812 41.738281 L 35.257812 36.890625 C 35.257812 33.410156 34.074219 31.421875 29.714844 31.421875 L 14.039062 31.421875 C 4.707031 31.421875 0.347656 28.640625 0.347656 18.429688 Z M 0.347656 13.867188 " clip-rule="nonzero"/></clipPath><clipPath id="6df1534b9c"><rect x="0" width="43" y="0" height="55"/></clipPath><clipPath id="d30e857098"><path d="M 424.101562 361.769531 L 466.6875 361.769531 L 466.6875 415.578125 L 424.101562 415.578125 Z M 424.101562 361.769531 " clip-rule="nonzero"/></clipPath><clipPath id="9c59d19096"><path d="M 424.265625 374.867188 C 424.265625 366.71875 427.746094 361.769531 437.957031 361.769531 C 443.113281 361.769531 458.683594 362.851562 463.839844 363.339844 L 463.839844 369.011719 L 437.957031 369.011719 C 431.613281 369.011719 431.613281 371.488281 431.613281 374.867188 L 431.613281 379.429688 C 431.613281 384.894531 434.292969 385.074219 437.957031 385.074219 L 453.632812 385.074219 C 462.269531 385.074219 466.523438 390.4375 466.523438 397.886719 L 466.523438 402.734375 C 466.523438 413.539062 459.972656 415.445312 453.632812 415.445312 C 448.757812 415.445312 430.222656 413.949219 426.457031 413.5625 L 426.457031 408.097656 L 453.632812 408.097656 C 453.632812 408.097656 459.199219 408.691406 459.199219 402.734375 L 459.199219 397.886719 C 459.199219 394.40625 458.015625 392.421875 453.632812 392.421875 L 437.957031 392.421875 C 428.621094 392.421875 424.265625 389.636719 424.265625 379.429688 Z M 424.265625 374.867188 " clip-rule="nonzero"/></clipPath><clipPath id="36929f510e"><path d="M 0.203125 0.769531 L 42.640625 0.769531 L 42.640625 54.496094 L 0.203125 54.496094 Z M 0.203125 0.769531 " clip-rule="nonzero"/></clipPath><clipPath id="49cef598db"><path d="M 0.265625 13.867188 C 0.265625 5.71875 3.746094 0.769531 13.957031 0.769531 C 19.113281 0.769531 34.683594 1.851562 39.839844 2.339844 L 39.839844 8.011719 L 13.957031 8.011719 C 7.613281 8.011719 7.613281 10.488281 7.613281 13.867188 L 7.613281 18.429688 C 7.613281 23.894531 10.292969 24.074219 13.957031 24.074219 L 29.632812 24.074219 C 38.269531 24.074219 42.523438 29.4375 42.523438 36.886719 L 42.523438 41.734375 C 42.523438 52.539062 35.972656 54.445312 29.632812 54.445312 C 24.757812 54.445312 6.222656 52.949219 2.457031 52.5625 L 2.457031 47.097656 L 29.632812 47.097656 C 29.632812 47.097656 35.199219 47.691406 35.199219 41.734375 L 35.199219 36.886719 C 35.199219 33.40625 34.015625 31.421875 29.632812 31.421875 L 13.957031 31.421875 C 4.621094 31.421875 0.265625 28.636719 0.265625 18.429688 Z M 0.265625 13.867188 " clip-rule="nonzero"/></clipPath><clipPath id="35643a2ab5"><rect x="0" width="43" y="0" height="55"/></clipPath><clipPath id="132707474c"><path d="M 510.15625 345.894531 L 519.820312 345.894531 L 519.820312 414.953125 L 510.15625 414.953125 Z M 510.15625 345.894531 " clip-rule="nonzero"/></clipPath><clipPath id="b8e3754ef6"><path d="M 511.164062 362.265625 L 518.484375 362.265625 L 518.484375 414.933594 L 511.164062 414.933594 Z M 510.15625 348.371094 C 510.15625 346.875 510.957031 345.894531 512.554688 345.894531 L 517.503906 345.894531 C 519 345.894531 519.800781 346.976562 519.800781 348.371094 L 519.800781 353.730469 C 519.800781 355.226562 518.898438 356 517.503906 356 L 512.554688 356 C 511.164062 356 510.15625 355.125 510.15625 353.730469 Z M 510.15625 348.371094 " clip-rule="nonzero"/></clipPath><clipPath id="0091ee8e79"><path d="M 0.15625 0.894531 L 9.820312 0.894531 L 9.820312 69.953125 L 0.15625 69.953125 Z M 0.15625 0.894531 " clip-rule="nonzero"/></clipPath><clipPath id="409c597acf"><path d="M 1.164062 17.265625 L 8.484375 17.265625 L 8.484375 69.933594 L 1.164062 69.933594 Z M 0.15625 3.371094 C 0.15625 1.875 0.957031 0.894531 2.554688 0.894531 L 7.503906 0.894531 C 9 0.894531 9.800781 1.976562 9.800781 3.371094 L 9.800781 8.730469 C 9.800781 10.226562 8.898438 11 7.503906 11 L 2.554688 11 C 1.164062 11 0.15625 10.125 0.15625 8.730469 Z M 0.15625 3.371094 " clip-rule="nonzero"/></clipPath><clipPath id="000bb7376d"><rect x="0" width="10" y="0" height="70"/></clipPath><clipPath id="63f13b69ca"><path d="M 564.414062 361.769531 L 605.085938 361.769531 L 605.085938 415.464844 L 564.414062 415.464844 Z M 564.414062 361.769531 " clip-rule="nonzero"/></clipPath><clipPath id="7f0d729acf"><path d="M 581.765625 361.769531 C 586.921875 361.769531 597.441406 363.058594 604.378906 364.347656 L 604.378906 369.707031 C 604.378906 369.707031 590.585938 369.117188 581.765625 369.117188 C 575.8125 369.117188 571.738281 370.199219 571.738281 388.941406 C 571.738281 404.128906 574.625 408.097656 581.765625 408.097656 C 590.894531 408.097656 605.074219 407.015625 605.074219 407.015625 L 605.074219 412.558594 C 597.03125 414.828125 589.992188 415.34375 581.765625 415.445312 C 571.945312 415.445312 564.414062 411.65625 564.414062 388.554688 C 564.414062 365.53125 571.660156 361.769531 581.765625 361.769531 " clip-rule="nonzero"/></clipPath><clipPath id="d85349ddb6"><path d="M 0.414062 0.769531 L 41.085938 0.769531 L 41.085938 54.464844 L 0.414062 54.464844 Z M 0.414062 0.769531 " clip-rule="nonzero"/></clipPath><clipPath id="4d31de8dcf"><path d="M 17.765625 0.769531 C 22.921875 0.769531 33.441406 2.058594 40.378906 3.347656 L 40.378906 8.707031 C 40.378906 8.707031 26.585938 8.117188 17.765625 8.117188 C 11.8125 8.117188 7.738281 9.199219 7.738281 27.941406 C 7.738281 43.128906 10.625 47.097656 17.765625 47.097656 C 26.894531 47.097656 41.074219 46.015625 41.074219 46.015625 L 41.074219 51.558594 C 33.03125 53.828125 25.992188 54.34375 17.765625 54.445312 C 7.945312 54.445312 0.414062 50.65625 0.414062 27.554688 C 0.414062 4.53125 7.660156 0.769531 17.765625 0.769531 " clip-rule="nonzero"/></clipPath><clipPath id="f5fdf139ba"><rect x="0" width="42" y="0" height="55"/></clipPath><clipPath id="58b750aaec"><path d="M 648.726562 362.261719 L 691.78125 362.261719 L 691.78125 415.914062 L 648.726562 415.914062 Z M 648.726562 362.261719 " clip-rule="nonzero"/></clipPath><clipPath id="5e0cbaf15b"><path d="M 648.726562 362.261719 L 656.074219 362.261719 L 656.074219 398.976562 C 656.074219 405.527344 659.941406 408.515625 664.996094 408.515625 C 672.933594 408.515625 676.800781 406.53125 684.433594 402.871094 L 684.433594 362.261719 L 691.78125 362.261719 L 691.78125 414.9375 L 686.625 414.9375 L 684.433594 408.773438 C 678.375 412.253906 673.011719 415.8125 664.996094 415.8125 C 654.476562 415.839844 648.726562 407.691406 648.726562 398.976562 Z M 648.726562 362.261719 " clip-rule="nonzero"/></clipPath><clipPath id="8bcf4edcd9"><path d="M 0.726562 0.261719 L 43.78125 0.261719 L 43.78125 53.914062 L 0.726562 53.914062 Z M 0.726562 0.261719 " clip-rule="nonzero"/></clipPath><clipPath id="2ec6770bcf"><path d="M 0.726562 0.261719 L 8.074219 0.261719 L 8.074219 36.976562 C 8.074219 43.527344 11.941406 46.515625 16.996094 46.515625 C 24.933594 46.515625 28.800781 44.53125 36.433594 40.871094 L 36.433594 0.261719 L 43.78125 0.261719 L 43.78125 52.9375 L 38.625 52.9375 L 36.433594 46.773438 C 30.375 50.253906 25.011719 53.8125 16.996094 53.8125 C 6.476562 53.839844 0.726562 45.691406 0.726562 36.976562 Z M 0.726562 0.261719 " clip-rule="nonzero"/></clipPath><clipPath id="059b2921e5"><rect x="0" width="44" y="0" height="54"/></clipPath><clipPath id="bd30a7667f"><path d="M 738.390625 361.667969 L 772.851562 361.667969 L 772.851562 415 L 738.390625 415 Z M 738.390625 361.667969 " clip-rule="nonzero"/></clipPath><clipPath id="5217253519"><path d="M 738.390625 362.261719 L 743.546875 362.261719 L 745.738281 368.914062 C 751.796875 365.429688 757.234375 361.667969 765.382812 361.667969 C 768.269531 361.667969 771.542969 361.875 772.730469 362.464844 L 772.730469 369.710938 C 771.542969 369.429688 768.269531 369.117188 765.382812 369.117188 C 757.441406 369.117188 753.394531 371.207031 745.738281 374.867188 L 745.738281 414.933594 L 738.390625 414.933594 Z M 738.390625 362.261719 " clip-rule="nonzero"/></clipPath><clipPath id="701381ad76"><path d="M 0.390625 0.667969 L 34.804688 0.667969 L 34.804688 54 L 0.390625 54 Z M 0.390625 0.667969 " clip-rule="nonzero"/></clipPath><clipPath id="ed3fedfe2f"><path d="M 0.390625 1.261719 L 5.546875 1.261719 L 7.738281 7.914062 C 13.796875 4.429688 19.234375 0.667969 27.382812 0.667969 C 30.269531 0.667969 33.542969 0.875 34.730469 1.464844 L 34.730469 8.710938 C 33.542969 8.429688 30.269531 8.117188 27.382812 8.117188 C 19.441406 8.117188 15.394531 10.207031 7.738281 13.867188 L 7.738281 53.933594 L 0.390625 53.933594 Z M 0.390625 1.261719 " clip-rule="nonzero"/></clipPath><clipPath id="fc885f5b4b"><rect x="0" width="35" y="0" height="54"/></clipPath><clipPath id="5a2afbf24d"><path d="M 813.378906 361.105469 L 856 361.105469 L 856 415.628906 L 813.378906 415.628906 Z M 813.378906 361.105469 " clip-rule="nonzero"/></clipPath><clipPath id="7e36053fe7"><path d="M 826.578125 408.195312 C 834.519531 408.195312 848.597656 403.140625 848.597656 403.140625 L 848.597656 388.960938 L 826.578125 390.558594 C 822.324219 390.945312 820.726562 393.835938 820.726562 397.007812 L 820.726562 401.957031 C 820.726562 406.726562 823.203125 408.222656 826.578125 408.222656 M 813.378906 396.386719 C 813.378906 388.445312 818.328125 383.1875 826.578125 383.1875 C 826.578125 383.1875 848.597656 383.289062 848.597656 383.1875 C 848.597656 383.1875 848.703125 376.636719 848.597656 376.535156 C 848.597656 370.476562 845.425781 368.386719 840.476562 368.386719 C 833.335938 368.386719 824.699219 368.878906 815.082031 369.574219 L 815.082031 364.234375 C 822.121094 362.277344 830.9375 361.375 840.761719 361.269531 C 848.984375 361.167969 855.945312 365.628906 855.945312 376.558594 L 855.945312 414.949219 L 850.480469 414.949219 L 848.597656 408.609375 C 848.390625 408.609375 835.605469 415.542969 826.578125 415.542969 C 819.335938 415.542969 813.378906 410.878906 813.378906 402.445312 Z M 813.378906 396.386719 " clip-rule="nonzero"/></clipPath><clipPath id="c5f44c5fb3"><path d="M 0.378906 0.105469 L 43 0.105469 L 43 54.628906 L 0.378906 54.628906 Z M 0.378906 0.105469 " clip-rule="nonzero"/></clipPath><clipPath id="26dad743e4"><path d="M 13.578125 47.195312 C 21.519531 47.195312 35.597656 42.140625 35.597656 42.140625 L 35.597656 27.960938 L 13.578125 29.558594 C 9.324219 29.945312 7.726562 32.835938 7.726562 36.007812 L 7.726562 40.957031 C 7.726562 45.726562 10.203125 47.222656 13.578125 47.222656 M 0.378906 35.386719 C 0.378906 27.445312 5.328125 22.1875 13.578125 22.1875 C 13.578125 22.1875 35.597656 22.289062 35.597656 22.1875 C 35.597656 22.1875 35.703125 15.636719 35.597656 15.535156 C 35.597656 9.476562 32.425781 7.386719 27.476562 7.386719 C 20.335938 7.386719 11.699219 7.878906 2.082031 8.574219 L 2.082031 3.234375 C 9.121094 1.277344 17.9375 0.375 27.761719 0.269531 C 35.984375 0.167969 42.945312 4.628906 42.945312 15.558594 L 42.945312 53.949219 L 37.480469 53.949219 L 35.597656 47.609375 C 35.390625 47.609375 22.605469 54.542969 13.578125 54.542969 C 6.335938 54.542969 0.378906 49.878906 0.378906 41.445312 Z M 0.378906 35.386719 " clip-rule="nonzero"/></clipPath><clipPath id="ec21fa93cf"><rect x="0" width="43" y="0" height="55"/></clipPath><clipPath id="a1bd6be9b7"><path d="M 898.578125 362.261719 L 938 362.261719 L 938 414.957031 L 898.578125 414.957031 Z M 898.578125 362.261719 " clip-rule="nonzero"/></clipPath><clipPath id="9ca85e0e0d"><path d="M 898.578125 362.261719 L 937.871094 362.261719 L 937.871094 369.609375 L 909.691406 407.484375 L 937.871094 407.484375 C 937.972656 407.589844 937.871094 414.832031 937.871094 414.832031 L 900.074219 414.832031 L 900.074219 407.484375 L 928.742188 369.609375 L 898.578125 369.609375 Z M 898.578125 362.261719 " clip-rule="nonzero"/></clipPath><clipPath id="1f727924bf"><path d="M 0.578125 0.261719 L 39.996094 0.261719 L 39.996094 52.957031 L 0.578125 52.957031 Z M 0.578125 0.261719 " clip-rule="nonzero"/></clipPath><clipPath id="50b505b49e"><path d="M 0.578125 0.261719 L 39.871094 0.261719 L 39.871094 7.609375 L 11.691406 45.484375 L 39.871094 45.484375 C 39.972656 45.589844 39.871094 52.832031 39.871094 52.832031 L 2.074219 52.832031 L 2.074219 45.484375 L 30.742188 7.609375 L 0.578125 7.609375 Z M 0.578125 0.261719 " clip-rule="nonzero"/></clipPath><clipPath id="11ff80e529"><rect x="0" width="40" y="0" height="53"/></clipPath><clipPath id="5413a746d1"><path d="M 980.511719 345.855469 L 990.175781 345.855469 L 990.175781 414.976562 L 980.511719 414.976562 Z M 980.511719 345.855469 " clip-rule="nonzero"/></clipPath><clipPath id="9c175f9105"><path d="M 981.515625 362.265625 L 988.839844 362.265625 L 988.839844 414.941406 L 981.515625 414.941406 Z M 980.511719 348.371094 C 980.511719 346.875 981.3125 345.894531 982.882812 345.894531 L 987.859375 345.894531 C 989.355469 345.894531 990.152344 346.976562 990.152344 348.371094 L 990.152344 353.730469 C 990.152344 355.226562 989.25 356 987.859375 356 L 982.882812 356 C 981.515625 356 980.511719 355.125 980.511719 353.730469 Z M 980.511719 348.371094 " clip-rule="nonzero"/></clipPath><clipPath id="6ae2853c71"><path d="M 0.511719 0.855469 L 10.175781 0.855469 L 10.175781 69.976562 L 0.511719 69.976562 Z M 0.511719 0.855469 " clip-rule="nonzero"/></clipPath><clipPath id="07397f5b14"><path d="M 1.515625 17.265625 L 8.839844 17.265625 L 8.839844 69.941406 L 1.515625 69.941406 Z M 0.511719 3.371094 C 0.511719 1.875 1.3125 0.894531 2.882812 0.894531 L 7.859375 0.894531 C 9.355469 0.894531 10.152344 1.976562 10.152344 3.371094 L 10.152344 8.730469 C 10.152344 10.226562 9.25 11 7.859375 11 L 2.882812 11 C 1.515625 11 0.511719 10.125 0.511719 8.730469 Z M 0.511719 3.371094 " clip-rule="nonzero"/></clipPath><clipPath id="b3ebc0ca41"><rect x="0" width="11" y="0" height="70"/></clipPath><clipPath id="36630395d2"><path d="M 333.457031 14 L 408.765625 14 L 408.765625 107 L 333.457031 107 Z M 333.457031 14 " clip-rule="nonzero"/></clipPath><clipPath id="a919a1d97c"><path d="M 388.019531 71.480469 L 371.570312 24.558594 L 354.5 71.480469 Z M 367.777344 14.0625 L 375.488281 14.0625 L 408.101562 106.648438 L 399.621094 106.648438 L 390.519531 78.675781 L 351.84375 78.675781 L 342.226562 106.648438 L 333.488281 106.648438 Z M 367.777344 14.0625 " clip-rule="nonzero"/></clipPath><clipPath id="1613a81681"><path d="M 0.457031 0 L 75.140625 0 L 75.140625 92.695312 L 0.457031 92.695312 Z M 0.457031 0 " clip-rule="nonzero"/></clipPath><clipPath id="9899961c3d"><path d="M 55.019531 57.480469 L 38.570312 10.558594 L 21.5 57.480469 Z M 34.777344 0.0625 L 42.488281 0.0625 L 75.101562 92.648438 L 66.621094 92.648438 L 57.519531 64.675781 L 18.84375 64.675781 L 9.226562 92.648438 L 0.488281 92.648438 Z M 34.777344 0.0625 " clip-rule="nonzero"/></clipPath><clipPath id="07543d425c"><rect x="0" width="76" y="0" height="93"/></clipPath><clipPath id="621f4582e9"><path d="M 419 38 L 473 38 L 473 107 L 419 107 Z M 419 38 " clip-rule="nonzero"/></clipPath><clipPath id="f123e0c11c"><path d="M 419.394531 39.484375 L 424.320312 39.484375 L 426.589844 47.324219 C 434.167969 42.785156 442.03125 38.351562 452.269531 38.351562 C 465.675781 38.351562 472.996094 48.714844 472.996094 59.851562 L 472.996094 106.648438 L 465.777344 106.648438 L 465.777344 59.851562 C 465.777344 51.011719 460.335938 45.570312 452.242188 45.570312 C 441.75 45.570312 436.179688 48.097656 426.5625 52.917969 L 426.5625 106.648438 L 419.34375 106.648438 Z M 419.394531 39.484375 " clip-rule="nonzero"/></clipPath><clipPath id="e9aaef24ef"><path d="M 0.167969 0.125 L 54 0.125 L 54 68.695312 L 0.167969 68.695312 Z M 0.167969 0.125 " clip-rule="nonzero"/></clipPath><clipPath id="f3c988a5c6"><path d="M 0.394531 1.484375 L 5.320312 1.484375 L 7.589844 9.324219 C 15.167969 4.785156 23.03125 0.351562 33.269531 0.351562 C 46.675781 0.351562 53.996094 10.714844 53.996094 21.851562 L 53.996094 68.648438 L 46.777344 68.648438 L 46.777344 21.851562 C 46.777344 13.011719 41.335938 7.570312 33.242188 7.570312 C 22.75 7.570312 17.179688 10.097656 7.5625 14.917969 L 7.5625 68.648438 L 0.34375 68.648438 Z M 0.394531 1.484375 " clip-rule="nonzero"/></clipPath><clipPath id="6ac822b15c"><rect x="0" width="54" y="0" height="69"/></clipPath><clipPath id="e25a889934"><path d="M 553.105469 38.828125 L 608 38.828125 L 608 107.859375 L 553.105469 107.859375 Z M 553.105469 38.828125 " clip-rule="nonzero"/></clipPath><clipPath id="20393b10fc"><path d="M 590.152344 69.984375 C 596.238281 69.984375 600.285156 68.566406 600.285156 62.765625 C 600.285156 47.582031 595.980469 46.1875 581.953125 46.1875 C 566.507812 46.1875 560.964844 47.582031 560.964844 69.984375 Z M 581.824219 38.996094 C 597.5 38.996094 607.503906 40.515625 607.503906 62.765625 C 607.503906 72.640625 601.933594 77.050781 590.179688 77.050781 L 560.941406 77.050781 C 560.941406 96.285156 565.605469 100.074219 575.867188 100.074219 C 587.496094 100.074219 596.753906 99.816406 606.214844 98.421875 L 606.214844 103.761719 C 595.953125 106.675781 586.363281 107.292969 575.867188 107.292969 C 558.671875 107.164062 553.746094 98.550781 553.746094 72.769531 C 553.746094 42.914062 561.714844 38.996094 581.824219 38.996094 " clip-rule="nonzero"/></clipPath><clipPath id="fa0ad89559"><path d="M 0.671875 0.84375 L 54.613281 0.84375 L 54.613281 69.414062 L 0.671875 69.414062 Z M 0.671875 0.84375 " clip-rule="nonzero"/></clipPath><clipPath id="a138f715c6"><path d="M 37.152344 31.984375 C 43.238281 31.984375 47.285156 30.566406 47.285156 24.765625 C 47.285156 9.582031 42.980469 8.1875 28.953125 8.1875 C 13.507812 8.1875 7.964844 9.582031 7.964844 31.984375 Z M 28.824219 0.996094 C 44.5 0.996094 54.503906 2.515625 54.503906 24.765625 C 54.503906 34.640625 48.933594 39.050781 37.179688 39.050781 L 7.941406 39.050781 C 7.941406 58.285156 12.605469 62.074219 22.867188 62.074219 C 34.496094 62.074219 43.753906 61.816406 53.214844 60.421875 L 53.214844 65.761719 C 42.953125 68.675781 33.363281 69.292969 22.867188 69.292969 C 5.671875 69.164062 0.746094 60.550781 0.746094 34.769531 C 0.746094 4.914062 8.714844 0.996094 28.824219 0.996094 " clip-rule="nonzero"/></clipPath><clipPath id="d93897a08f"><rect x="0" width="55" y="0" height="70"/></clipPath><clipPath id="fafccc561c"><path d="M 621 14 L 648 14 L 648 107 L 621 107 Z M 621 14 " clip-rule="nonzero"/></clipPath><clipPath id="998684cdb8"><path d="M 621.039062 14.0625 L 628.234375 14.0625 L 628.234375 82.746094 C 628.234375 96.773438 632.796875 98.550781 636.972656 99.453125 C 636.972656 99.453125 646.71875 101.722656 647.59375 101.722656 L 647.59375 106.675781 L 637.335938 106.675781 C 627.355469 106.675781 621.015625 100.226562 621.015625 82.773438 Z M 621.039062 14.0625 " clip-rule="nonzero"/></clipPath><clipPath id="06fac26468"><path d="M 0 0 L 26.652344 0 L 26.652344 92.695312 L 0 92.695312 Z M 0 0 " clip-rule="nonzero"/></clipPath><clipPath id="25c3662dbe"><path d="M 0.0390625 0.0625 L 7.234375 0.0625 L 7.234375 68.746094 C 7.234375 82.773438 11.796875 84.550781 15.972656 85.453125 C 15.972656 85.453125 25.71875 87.722656 26.59375 87.722656 L 26.59375 92.675781 L 16.335938 92.675781 C 6.355469 92.675781 0.015625 86.226562 0.015625 68.773438 Z M 0.0390625 0.0625 " clip-rule="nonzero"/></clipPath><clipPath id="abe1952b44"><rect x="0" width="27" y="0" height="93"/></clipPath><clipPath id="3b73d6002e"><path d="M 651.007812 38.828125 L 709.996094 38.828125 L 709.996094 107.859375 L 651.007812 107.859375 Z M 651.007812 38.828125 " clip-rule="nonzero"/></clipPath><clipPath id="bca314193a"><path d="M 680.855469 100.074219 C 695.265625 100.074219 702.613281 97.289062 702.613281 74.007812 C 702.613281 48.84375 695.78125 46.058594 680.855469 46.058594 C 666.3125 46.058594 659.09375 48.070312 659.09375 74.007812 C 659.09375 97.90625 666.804688 100.074219 680.855469 100.074219 M 680.855469 38.867188 C 703.234375 38.867188 709.808594 48.355469 709.808594 74.035156 C 709.808594 98.808594 702.976562 107.292969 680.855469 107.292969 C 658.347656 107.292969 651.902344 98.0625 651.902344 74.035156 C 651.902344 46.601562 659.480469 38.867188 680.855469 38.867188 " clip-rule="nonzero"/></clipPath><clipPath id="3ea122851a"><path d="M 0.730469 0.84375 L 58.988281 0.84375 L 58.988281 69.414062 L 0.730469 69.414062 Z M 0.730469 0.84375 " clip-rule="nonzero"/></clipPath><clipPath id="ed952484cd"><path d="M 29.855469 62.074219 C 44.265625 62.074219 51.613281 59.289062 51.613281 36.007812 C 51.613281 10.84375 44.78125 8.058594 29.855469 8.058594 C 15.3125 8.058594 8.09375 10.070312 8.09375 36.007812 C 8.09375 59.90625 15.804688 62.074219 29.855469 62.074219 M 29.855469 0.867188 C 52.234375 0.867188 58.808594 10.355469 58.808594 36.035156 C 58.808594 60.808594 51.976562 69.292969 29.855469 69.292969 C 7.347656 69.292969 0.902344 60.0625 0.902344 36.035156 C 0.902344 8.601562 8.480469 0.867188 29.855469 0.867188 " clip-rule="nonzero"/></clipPath><clipPath id="fa01e6fdc5"><rect x="0" width="59" y="0" height="70"/></clipPath><clipPath id="a6600e6140"><path d="M 486 39 L 548 39 L 548 134.21875 L 486 134.21875 Z M 486 39 " clip-rule="nonzero"/></clipPath><clipPath id="96fd6fa89f"><path d="M 519.6875 79.578125 L 507.160156 79.578125 C 497.050781 79.578125 493.363281 71.738281 493.363281 63.128906 C 493.363281 54.285156 496.019531 46.421875 507.648438 46.421875 L 521.441406 46.421875 C 530.285156 46.421875 533.714844 52.375 533.972656 63.128906 C 534.101562 70.21875 531.058594 79.578125 519.6875 79.578125 M 547.507812 39.226562 L 508.0625 39.226562 C 493.90625 39.226562 486.171875 46.808594 486.171875 63.128906 C 486.171875 70.089844 487.949219 78.441406 494.78125 81.972656 C 488.851562 82.746094 486.171875 87.800781 486.171875 91.847656 C 486.171875 94.375 486.84375 97.289062 488.777344 99.324219 C 488.929688 99.453125 490.605469 101.054688 493.132812 102.292969 L 493.132812 102.238281 C 493.132812 102.238281 493.261719 102.34375 493.492188 102.496094 C 496.097656 103.683594 498.003906 104.148438 503.960938 104.148438 L 525.746094 104.148438 C 534.488281 104.148438 536.628906 106.828125 536.628906 113.273438 L 536.628906 114.898438 C 536.628906 122.867188 532.835938 129.15625 524.871094 129.15625 L 499.835938 129.15625 L 495.917969 134.003906 L 524.84375 134.003906 C 541.421875 134.003906 543.820312 122.503906 543.820312 114.925781 L 543.820312 112.914062 C 543.820312 102.550781 537.761719 97.082031 526.882812 97.082031 L 500.222656 97.082031 C 497.179688 97.082031 493.390625 95.691406 493.390625 91.773438 C 493.390625 87.335938 498.574219 86.847656 500.609375 86.847656 L 520.332031 86.847656 C 538.277344 86.847656 541.191406 70.785156 541.191406 63.179688 C 541.191406 52.171875 537.660156 48.765625 536.007812 46.472656 L 547.507812 44.5625 Z M 547.507812 39.226562 " clip-rule="nonzero"/></clipPath><clipPath id="34426a8d23"><path d="M 0.0585938 0.0859375 L 61.675781 0.0859375 L 61.675781 95.027344 L 0.0585938 95.027344 Z M 0.0585938 0.0859375 " clip-rule="nonzero"/></clipPath><clipPath id="e629a7bf28"><path d="M 33.6875 40.578125 L 21.160156 40.578125 C 11.050781 40.578125 7.363281 32.738281 7.363281 24.128906 C 7.363281 15.285156 10.019531 7.421875 21.648438 7.421875 L 35.441406 7.421875 C 44.285156 7.421875 47.714844 13.375 47.972656 24.128906 C 48.101562 31.21875 45.058594 40.578125 33.6875 40.578125 M 61.507812 0.226562 L 22.0625 0.226562 C 7.90625 0.226562 0.171875 7.808594 0.171875 24.128906 C 0.171875 31.089844 1.949219 39.441406 8.78125 42.972656 C 2.851562 43.746094 0.171875 48.800781 0.171875 52.847656 C 0.171875 55.375 0.84375 58.289062 2.777344 60.324219 C 2.929688 60.453125 4.605469 62.054688 7.132812 63.292969 L 7.132812 63.238281 C 7.132812 63.238281 7.261719 63.34375 7.492188 63.496094 C 10.097656 64.683594 12.003906 65.148438 17.960938 65.148438 L 39.746094 65.148438 C 48.488281 65.148438 50.628906 67.828125 50.628906 74.273438 L 50.628906 75.898438 C 50.628906 83.867188 46.835938 90.15625 38.871094 90.15625 L 13.835938 90.15625 L 9.917969 95.003906 L 38.84375 95.003906 C 55.421875 95.003906 57.820312 83.503906 57.820312 75.925781 L 57.820312 73.914062 C 57.820312 63.550781 51.761719 58.082031 40.882812 58.082031 L 14.222656 58.082031 C 11.179688 58.082031 7.390625 56.691406 7.390625 52.773438 C 7.390625 48.335938 12.574219 47.847656 14.609375 47.847656 L 34.332031 47.847656 C 52.277344 47.847656 55.191406 31.785156 55.191406 24.179688 C 55.191406 13.171875 51.660156 9.765625 50.007812 7.472656 L 61.507812 5.5625 Z M 61.507812 0.226562 " clip-rule="nonzero"/></clipPath><clipPath id="53545045f3"><rect x="0" width="62" y="0" height="96"/></clipPath><clipPath id="fb1ff0ec6c"><path d="M 335 152 L 563 152 L 563 308 L 335 308 Z M 335 152 " clip-rule="nonzero"/></clipPath><clipPath id="46a0e0907d"><path d="M 335.007812 154.679688 L 354.914062 154.679688 L 361.539062 172.574219 C 377.988281 162.492188 391.242188 152.953125 414.316406 152.953125 C 433.058594 152.953125 449.226562 161.023438 455.851562 174.585938 C 470.574219 162.75 490.761719 152.953125 515.847656 152.953125 C 544.414062 152.953125 562.566406 173.425781 562.566406 203.433594 L 562.566406 307.855469 L 536.0625 307.855469 L 536.0625 203.125 C 536.0625 186.984375 526.261719 177.164062 512.703125 177.164062 C 491.921875 177.164062 478.074219 180.617188 461.367188 192.167969 L 461.367188 307.828125 L 434.8125 307.828125 L 434.8125 203.125 C 434.8125 186.984375 424.707031 177.164062 411.171875 177.164062 C 390.671875 177.164062 380.875 182.34375 361.566406 192.453125 L 361.566406 307.828125 L 335.007812 307.828125 Z M 335.007812 154.679688 " clip-rule="nonzero"/></clipPath><clipPath id="36bfd1c339"><path d="M 0 0.726562 L 227.78125 0.726562 L 227.78125 156 L 0 156 Z M 0 0.726562 " clip-rule="nonzero"/></clipPath><clipPath id="e73a2da657"><path d="M 0.0078125 2.679688 L 19.914062 2.679688 L 26.539062 20.574219 C 42.988281 10.492188 56.242188 0.953125 79.316406 0.953125 C 98.058594 0.953125 114.226562 9.023438 120.851562 22.585938 C 135.574219 10.75 155.761719 0.953125 180.847656 0.953125 C 209.414062 0.953125 227.566406 21.425781 227.566406 51.433594 L 227.566406 155.855469 L 201.0625 155.855469 L 201.0625 51.125 C 201.0625 34.984375 191.261719 25.164062 177.703125 25.164062 C 156.921875 25.164062 143.074219 28.617188 126.367188 40.167969 L 126.367188 155.828125 L 99.8125 155.828125 L 99.8125 51.125 C 99.8125 34.984375 89.707031 25.164062 76.171875 25.164062 C 55.671875 25.164062 45.875 30.34375 26.566406 40.453125 L 26.566406 155.828125 L 0.0078125 155.828125 Z M 0.0078125 2.679688 " clip-rule="nonzero"/></clipPath><clipPath id="6cd6b5e1dc"><rect x="0" width="228" y="0" height="156"/></clipPath><clipPath id="daaa6f0b19"><path d="M 583.226562 153.042969 L 711 153.042969 L 711 309.9375 L 583.226562 309.9375 Z M 583.226562 153.042969 " clip-rule="nonzero"/></clipPath><clipPath id="90bd373266"><path d="M 667.601562 221.019531 C 679.152344 221.019531 684.335938 216.402344 684.335938 207.742188 C 684.335938 180.335938 679.4375 177.445312 651.460938 177.445312 C 621.761719 177.445312 609.925781 178.015625 610.210938 220.992188 Z M 650.585938 153.519531 C 688.949219 153.519531 710.867188 157.285156 710.867188 208.050781 C 710.867188 231.71875 698.179688 244.402344 670.492188 244.402344 L 610.210938 244.402344 C 610.210938 278.152344 617.714844 285.0625 640.195312 285.0625 C 665.875 285.0625 686.347656 285.347656 707.976562 281.890625 L 707.976562 301.226562 C 684.902344 308.136719 658.0625 309.296875 634.136719 309.296875 C 595.179688 309.296875 583.65625 289.394531 583.65625 230.558594 C 583.65625 162.777344 602.964844 153.546875 650.558594 153.546875 " clip-rule="nonzero"/></clipPath><clipPath id="5f7fe72585"><path d="M 0.640625 0.445312 L 127.949219 0.445312 L 127.949219 156.527344 L 0.640625 156.527344 Z M 0.640625 0.445312 " clip-rule="nonzero"/></clipPath><clipPath id="afc9ba8ada"><path d="M 84.601562 68.019531 C 96.152344 68.019531 101.335938 63.402344 101.335938 54.742188 C 101.335938 27.335938 96.4375 24.445312 68.460938 24.445312 C 38.761719 24.445312 26.925781 25.015625 27.210938 67.992188 Z M 67.585938 0.519531 C 105.949219 0.519531 127.867188 4.285156 127.867188 55.050781 C 127.867188 78.71875 115.179688 91.402344 87.492188 91.402344 L 27.210938 91.402344 C 27.210938 125.152344 34.714844 132.0625 57.195312 132.0625 C 82.875 132.0625 103.347656 132.347656 124.976562 128.890625 L 124.976562 148.226562 C 101.902344 155.136719 75.0625 156.296875 51.136719 156.296875 C 12.179688 156.296875 0.65625 136.394531 0.65625 77.558594 C 0.65625 9.777344 19.964844 0.546875 67.558594 0.546875 " clip-rule="nonzero"/></clipPath><clipPath id="e3c988f793"><rect x="0" width="128" y="0" height="157"/></clipPath><clipPath id="f061f7af37"><path d="M 734 152 L 863 152 L 863 308 L 734 308 Z M 734 152 " clip-rule="nonzero"/></clipPath><clipPath id="63d68c832f"><path d="M 734.816406 154.679688 L 754.722656 154.679688 L 761.347656 172.289062 C 777.796875 162.210938 792.492188 152.101562 815.878906 152.101562 C 847.617188 152.101562 862.59375 176.054688 862.59375 202.300781 L 862.59375 307.878906 L 836.066406 307.878906 L 836.066406 202.273438 C 836.066406 184.40625 825.957031 176.3125 812.707031 176.3125 C 791.359375 176.3125 780.683594 181.777344 761.347656 191.886719 L 761.347656 307.828125 L 734.816406 307.828125 Z M 734.816406 154.679688 " clip-rule="nonzero"/></clipPath><clipPath id="2e9f191f41"><path d="M 0.683594 0.0078125 L 128.714844 0.0078125 L 128.714844 156 L 0.683594 156 Z M 0.683594 0.0078125 " clip-rule="nonzero"/></clipPath><clipPath id="034e8ee66b"><path d="M 0.816406 2.679688 L 20.722656 2.679688 L 27.347656 20.289062 C 43.796875 10.210938 58.492188 0.101562 81.878906 0.101562 C 113.617188 0.101562 128.59375 24.054688 128.59375 50.300781 L 128.59375 155.878906 L 102.066406 155.878906 L 102.066406 50.273438 C 102.066406 32.40625 91.957031 24.3125 78.707031 24.3125 C 57.359375 24.3125 46.683594 29.777344 27.347656 39.886719 L 27.347656 155.828125 L 0.816406 155.828125 Z M 0.816406 2.679688 " clip-rule="nonzero"/></clipPath><clipPath id="7c42682128"><rect x="0" width="129" y="0" height="156"/></clipPath><clipPath id="b888aefbfb"><path d="M 883.207031 81 L 1014.996094 81 L 1014.996094 309.9375 L 883.207031 309.9375 Z M 883.207031 81 " clip-rule="nonzero"/></clipPath><clipPath id="25b55529b0"><path d="M 936.746094 284.753906 C 957.527344 284.753906 973.949219 278.410156 987.792969 272.351562 L 987.792969 183.53125 C 970.183594 178.632812 956.648438 176.621094 936.746094 176.621094 C 920.011719 176.621094 910.214844 186.726562 910.214844 231.71875 C 910.214844 268.070312 919.730469 284.777344 936.746094 284.777344 M 933.859375 152.386719 C 946.851562 152.386719 970.496094 156.433594 987.792969 163.628906 L 987.792969 81.40625 L 1014.042969 81.40625 L 1014.042969 307.828125 L 993.855469 307.828125 L 987.792969 291.09375 C 979.726562 297.4375 953.167969 309.554688 933.859375 309.554688 C 893.171875 309.554688 883.660156 270.625 883.660156 231.976562 C 883.660156 190.15625 890.59375 152.359375 933.859375 152.359375 " clip-rule="nonzero"/></clipPath><clipPath id="a547cc8f26"><path d="M 0.570312 0.28125 L 131.238281 0.28125 L 131.238281 228.765625 L 0.570312 228.765625 Z M 0.570312 0.28125 " clip-rule="nonzero"/></clipPath><clipPath id="c05136dc71"><path d="M 53.746094 203.753906 C 74.527344 203.753906 90.949219 197.410156 104.792969 191.351562 L 104.792969 102.53125 C 87.183594 97.632812 73.648438 95.621094 53.746094 95.621094 C 37.011719 95.621094 27.214844 105.726562 27.214844 150.71875 C 27.214844 187.070312 36.730469 203.777344 53.746094 203.777344 M 50.859375 71.386719 C 63.851562 71.386719 87.496094 75.433594 104.792969 82.628906 L 104.792969 0.40625 L 131.042969 0.40625 L 131.042969 226.828125 L 110.855469 226.828125 L 104.792969 210.09375 C 96.726562 216.4375 70.167969 228.554688 50.859375 228.554688 C 10.171875 228.554688 0.660156 189.625 0.660156 150.976562 C 0.660156 109.15625 7.59375 71.359375 50.859375 71.359375 " clip-rule="nonzero"/></clipPath><clipPath id="db7976c401"><rect x="0" width="132" y="0" height="229"/></clipPath><clipPath id="2f7cccf956"><path d="M 13.394531 14 L 322 14 L 322 309.9375 L 13.394531 309.9375 Z M 13.394531 14 " clip-rule="nonzero"/></clipPath><clipPath id="e7bbea8ea4"><path d="M 304.816406 286.042969 L 304.816406 19.96875 C 304.816406 19.839844 304.871094 19.710938 304.871094 19.554688 C 304.871094 16.539062 302.421875 14.0625 299.378906 14.0625 L 250.699219 14.0625 L 250.625 14.117188 C 246.085938 14.398438 242.113281 16.640625 239.511719 20.019531 L 239.484375 20.046875 L 127.949219 160.6875 L 127.949219 160.738281 C 127.125 161.488281 126.609375 162.542969 126.609375 163.757812 C 126.609375 164.96875 127.125 166.023438 127.949219 166.796875 L 127.949219 166.875 L 137.800781 174.792969 L 219.683594 242.261719 L 219.683594 242.238281 C 219.683594 242.238281 219.710938 242.261719 219.710938 242.261719 L 220.199219 242.675781 C 220.894531 243.164062 222.3125 243.835938 224.246094 242.984375 C 226.128906 242.160156 226.257812 239.996094 226.257812 239.683594 L 226.257812 228.78125 C 226.257812 228.78125 226.414062 227.722656 226.15625 227.105469 C 225.871094 226.40625 225.277344 225.941406 225.277344 225.941406 L 165.207031 174.378906 C 163.167969 172.804688 161.855469 170.382812 161.855469 167.597656 C 161.855469 165.585938 162.730469 163.523438 163.890625 162.054688 C 164.019531 161.898438 164.125 161.796875 164.125 161.796875 L 234.046875 73.285156 C 234.765625 72.175781 236.03125 71.429688 237.472656 71.429688 C 239.742188 71.429688 241.597656 73.261719 241.597656 75.527344 C 241.597656 75.632812 241.574219 75.734375 241.574219 75.839844 L 241.574219 263.121094 L 241.523438 263.121094 C 241.46875 266.730469 238.558594 269.671875 234.949219 269.617188 C 233.425781 269.617188 231.285156 268.511719 230.253906 267.632812 L 118.308594 179.148438 C 117.636719 178.660156 116.8125 178.347656 115.910156 178.347656 C 114.699219 178.347656 113.617188 178.890625 112.867188 179.714844 L 14.558594 303.007812 L 14.585938 303.03125 C 14.070312 303.730469 13.734375 304.578125 13.734375 305.507812 C 13.734375 307.75 15.511719 309.554688 17.730469 309.632812 L 204.1875 309.632812 C 200.578125 300.402344 191.660156 293.828125 181.191406 293.699219 L 181.191406 293.671875 L 73.550781 293.671875 L 73.550781 293.648438 C 69.863281 293.46875 66.898438 290.449219 66.898438 286.710938 C 66.898438 285.242188 67.386719 283.929688 68.160156 282.820312 L 121.222656 215.269531 C 121.96875 214.082031 123.285156 213.308594 124.777344 213.308594 C 125.9375 213.308594 127.023438 213.773438 127.769531 214.574219 C 127.769531 214.574219 238.300781 299.886719 240.207031 301.28125 C 245.570312 305.199219 257.042969 309.605469 269.753906 309.605469 L 321.472656 309.605469 L 321.472656 306.796875 C 311.960938 304.683594 304.84375 296.199219 304.84375 286.066406 " clip-rule="nonzero"/></clipPath><clipPath id="96efbb4779"><path d="M 0.503906 0 L 308.589844 0 L 308.589844 295.765625 L 0.503906 295.765625 Z M 0.503906 0 " clip-rule="nonzero"/></clipPath><clipPath id="b4c1c4de71"><path d="M 291.816406 272.042969 L 291.816406 5.96875 C 291.816406 5.839844 291.871094 5.710938 291.871094 5.554688 C 291.871094 2.539062 289.421875 0.0625 286.378906 0.0625 L 237.699219 0.0625 L 237.625 0.117188 C 233.085938 0.398438 229.113281 2.640625 226.511719 6.019531 L 226.484375 6.046875 L 114.949219 146.6875 L 114.949219 146.738281 C 114.125 147.488281 113.609375 148.542969 113.609375 149.757812 C 113.609375 150.96875 114.125 152.023438 114.949219 152.796875 L 114.949219 152.875 L 124.800781 160.792969 L 206.683594 228.261719 L 206.683594 228.238281 C 206.683594 228.238281 206.710938 228.261719 206.710938 228.261719 L 207.199219 228.675781 C 207.894531 229.164062 209.3125 229.835938 211.246094 228.984375 C 213.128906 228.160156 213.257812 225.996094 213.257812 225.683594 L 213.257812 214.78125 C 213.257812 214.78125 213.414062 213.722656 213.15625 213.105469 C 212.871094 212.40625 212.277344 211.941406 212.277344 211.941406 L 152.207031 160.378906 C 150.167969 158.804688 148.855469 156.382812 148.855469 153.597656 C 148.855469 151.585938 149.730469 149.523438 150.890625 148.054688 C 151.019531 147.898438 151.125 147.796875 151.125 147.796875 L 221.046875 59.285156 C 221.765625 58.175781 223.03125 57.429688 224.472656 57.429688 C 226.742188 57.429688 228.597656 59.261719 228.597656 61.527344 C 228.597656 61.632812 228.574219 61.734375 228.574219 61.839844 L 228.574219 249.121094 L 228.523438 249.121094 C 228.46875 252.730469 225.558594 255.671875 221.949219 255.617188 C 220.425781 255.617188 218.285156 254.511719 217.253906 253.632812 L 105.308594 165.148438 C 104.636719 164.660156 103.8125 164.347656 102.910156 164.347656 C 101.699219 164.347656 100.617188 164.890625 99.867188 165.714844 L 1.558594 289.007812 L 1.585938 289.03125 C 1.070312 289.730469 0.734375 290.578125 0.734375 291.507812 C 0.734375 293.75 2.511719 295.554688 4.730469 295.632812 L 191.1875 295.632812 C 187.578125 286.402344 178.660156 279.828125 168.191406 279.699219 L 168.191406 279.671875 L 60.550781 279.671875 L 60.550781 279.648438 C 56.863281 279.46875 53.898438 276.449219 53.898438 272.710938 C 53.898438 271.242188 54.386719 269.929688 55.160156 268.820312 L 108.222656 201.269531 C 108.96875 200.082031 110.285156 199.308594 111.777344 199.308594 C 112.9375 199.308594 114.023438 199.773438 114.769531 200.574219 C 114.769531 200.574219 225.300781 285.886719 227.207031 287.28125 C 232.570312 291.199219 244.042969 295.605469 256.753906 295.605469 L 308.472656 295.605469 L 308.472656 292.796875 C 298.960938 290.683594 291.84375 282.199219 291.84375 272.066406 " clip-rule="nonzero"/></clipPath><clipPath id="4a1e95455a"><rect x="0" width="309" y="0" height="296"/></clipPath><clipPath id="b1a2c57ffd"><path d="M 1034.761719 361.765625 L 1081.191406 361.765625 L 1081.191406 415.449219 L 1034.761719 415.449219 Z M 1034.761719 361.765625 " clip-rule="nonzero"/></clipPath><clipPath id="d5af3f95d6"><path d="M 1057.96875 408.097656 C 1068.691406 408.097656 1073.847656 406.703125 1073.847656 389.351562 C 1073.847656 370.507812 1069.59375 369.113281 1057.96875 369.113281 C 1046.855469 369.113281 1042.085938 370.402344 1042.085938 389.351562 C 1042.085938 406.910156 1047.730469 408.097656 1057.96875 408.097656 M 1057.96875 361.765625 C 1075.730469 361.765625 1081.171875 368.417969 1081.171875 389.351562 C 1081.171875 408.894531 1075.707031 415.445312 1057.96875 415.445312 C 1040.230469 415.445312 1034.761719 408.199219 1034.761719 389.351562 C 1034.761719 367.824219 1040.71875 361.765625 1057.96875 361.765625 " clip-rule="nonzero"/></clipPath><clipPath id="cb0b3095d0"><path d="M 0.761719 0.765625 L 47.191406 0.765625 L 47.191406 54.449219 L 0.761719 54.449219 Z M 0.761719 0.765625 " clip-rule="nonzero"/></clipPath><clipPath id="547f6cd592"><path d="M 23.96875 47.097656 C 34.691406 47.097656 39.847656 45.703125 39.847656 28.351562 C 39.847656 9.507812 35.59375 8.113281 23.96875 8.113281 C 12.855469 8.113281 8.085938 9.402344 8.085938 28.351562 C 8.085938 45.910156 13.730469 47.097656 23.96875 47.097656 M 23.96875 0.765625 C 41.730469 0.765625 47.171875 7.417969 47.171875 28.351562 C 47.171875 47.894531 41.707031 54.445312 23.96875 54.445312 C 6.230469 54.445312 0.761719 47.199219 0.761719 28.351562 C 0.761719 6.824219 6.71875 0.765625 23.96875 0.765625 " clip-rule="nonzero"/></clipPath><clipPath id="1d7c039f16"><rect x="0" width="48" y="0" height="55"/></clipPath><clipPath id="73a3f5ced1"><path d="M 1040.578125 153.234375 L 1176.726562 153.234375 L 1176.726562 309.59375 L 1040.578125 309.59375 Z M 1040.578125 153.234375 " clip-rule="nonzero"/></clipPath><clipPath id="f83711bcac"><path d="M 1108.644531 284.773438 C 1137.492188 284.773438 1150.179688 281.035156 1150.179688 233.441406 C 1150.179688 181.800781 1139.789062 177.496094 1108.644531 177.496094 C 1078.632812 177.496094 1067.109375 181.828125 1067.109375 233.441406 C 1067.109375 281.320312 1081.234375 284.773438 1108.644531 284.773438 M 1108.644531 153.234375 C 1160.570312 153.234375 1176.707031 172.570312 1176.707031 233.417969 C 1176.707031 290.242188 1160.851562 309.269531 1108.644531 309.269531 C 1056.742188 309.292969 1040.578125 288.230469 1040.578125 233.417969 C 1040.578125 170.84375 1057.878906 153.234375 1108.644531 153.234375 " clip-rule="nonzero"/></clipPath><clipPath id="5d34037a3a"><path d="M 0.578125 0.234375 L 136.726562 0.234375 L 136.726562 156.527344 L 0.578125 156.527344 Z M 0.578125 0.234375 " clip-rule="nonzero"/></clipPath><clipPath id="586dbdb51a"><path d="M 68.644531 131.773438 C 97.492188 131.773438 110.179688 128.035156 110.179688 80.441406 C 110.179688 28.800781 99.789062 24.496094 68.644531 24.496094 C 38.632812 24.496094 27.109375 28.828125 27.109375 80.441406 C 27.109375 128.320312 41.234375 131.773438 68.644531 131.773438 M 68.644531 0.234375 C 120.570312 0.234375 136.707031 19.570312 136.707031 80.417969 C 136.707031 137.242188 120.851562 156.269531 68.644531 156.269531 C 16.742188 156.292969 0.578125 135.230469 0.578125 80.417969 C 0.578125 17.84375 17.878906 0.234375 68.644531 0.234375 " clip-rule="nonzero"/></clipPath><clipPath id="b3b5b17e72"><rect x="0" width="137" y="0" height="157"/></clipPath><clipPath id="b63c7a17bd"><path d="M 1126.8125 361.367188 L 1170 361.367188 L 1170 415 L 1126.8125 415 Z M 1126.8125 361.367188 " clip-rule="nonzero"/></clipPath><clipPath id="0e466964de"><path d="M 1126.8125 362.269531 L 1131.96875 362.269531 L 1134.160156 368.429688 C 1140.191406 364.949219 1145.554688 361.367188 1153.601562 361.367188 C 1164.117188 361.367188 1169.867188 369.511719 1169.867188 378.226562 L 1169.867188 414.941406 L 1162.519531 414.941406 L 1162.519531 378.226562 C 1162.519531 371.679688 1158.652344 368.714844 1153.574219 368.714844 C 1145.632812 368.714844 1141.765625 370.699219 1134.132812 374.359375 L 1134.132812 414.941406 L 1126.8125 414.941406 Z M 1126.8125 362.269531 " clip-rule="nonzero"/></clipPath><clipPath id="f0b8a7547b"><path d="M 0.8125 0.367188 L 44 0.367188 L 44 54 L 0.8125 54 Z M 0.8125 0.367188 " clip-rule="nonzero"/></clipPath><clipPath id="3370339dd4"><path d="M 0.8125 1.269531 L 5.96875 1.269531 L 8.160156 7.429688 C 14.191406 3.949219 19.554688 0.367188 27.601562 0.367188 C 38.117188 0.367188 43.867188 8.511719 43.867188 17.226562 L 43.867188 53.941406 L 36.519531 53.941406 L 36.519531 17.226562 C 36.519531 10.679688 32.652344 7.714844 27.574219 7.714844 C 19.632812 7.714844 15.765625 9.699219 8.132812 13.359375 L 8.132812 53.941406 L 0.8125 53.941406 Z M 0.8125 1.269531 " clip-rule="nonzero"/></clipPath><clipPath id="308fe4b7b5"><rect x="0" width="44" y="0" height="54"/></clipPath><clipPath id="3a58a27a96"><path d="M 1214.492188 345.855469 L 1224.152344 345.855469 L 1224.152344 414.941406 L 1214.492188 414.941406 Z M 1214.492188 345.855469 " clip-rule="nonzero"/></clipPath><clipPath id="c0e308e46d"><path d="M 1215.496094 362.265625 L 1222.820312 362.265625 L 1222.820312 414.941406 L 1215.496094 414.941406 Z M 1214.492188 348.371094 C 1214.492188 346.875 1215.289062 345.894531 1216.863281 345.894531 L 1221.839844 345.894531 C 1223.335938 345.894531 1224.132812 346.976562 1224.132812 348.371094 L 1224.132812 353.730469 C 1224.132812 355.226562 1223.257812 356 1221.839844 356 L 1216.863281 356 C 1215.496094 356 1214.492188 355.125 1214.492188 353.730469 Z M 1214.492188 348.371094 " clip-rule="nonzero"/></clipPath><clipPath id="4afbf29f36"><path d="M 0.492188 0.855469 L 10.152344 0.855469 L 10.152344 69.941406 L 0.492188 69.941406 Z M 0.492188 0.855469 " clip-rule="nonzero"/></clipPath><clipPath id="bc42a7f4d7"><path d="M 1.496094 17.265625 L 8.820312 17.265625 L 8.820312 69.941406 L 1.496094 69.941406 Z M 0.492188 3.371094 C 0.492188 1.875 1.289062 0.894531 2.863281 0.894531 L 7.839844 0.894531 C 9.335938 0.894531 10.132812 1.976562 10.132812 3.371094 L 10.132812 8.730469 C 10.132812 10.226562 9.257812 11 7.839844 11 L 2.863281 11 C 1.496094 11 0.492188 10.125 0.492188 8.730469 Z M 0.492188 3.371094 " clip-rule="nonzero"/></clipPath><clipPath id="7c415b4f43"><rect x="0" width="11" y="0" height="70"/></clipPath><clipPath id="cb242c80cc"><path d="M 1269.320312 385.511719 L 1460.148438 385.511719 L 1460.148438 393.191406 L 1269.320312 393.191406 Z M 1269.320312 385.511719 " clip-rule="nonzero"/></clipPath><clipPath id="c1b21dacb3"><path d="M 0.320312 0.511719 L 191.148438 0.511719 L 191.148438 8.191406 L 0.320312 8.191406 Z M 0.320312 0.511719 " clip-rule="nonzero"/></clipPath><clipPath id="01370ff316"><rect x="0" width="192" y="0" height="9"/></clipPath><clipPath id="96598be3b8"><path d="M 1337 153.125 L 1465 153.125 L 1465 309.324219 L 1337 309.324219 Z M 1337 153.125 " clip-rule="nonzero"/></clipPath><clipPath id="b27857ca8f"><path d="M 1380.335938 241.789062 C 1368.785156 241.789062 1363.605469 246.402344 1363.605469 255.066406 C 1363.605469 282.472656 1368.503906 285.359375 1396.476562 285.359375 C 1426.203125 285.359375 1438.011719 284.765625 1437.730469 241.8125 Z M 1397.355469 309.285156 C 1358.988281 309.285156 1337.074219 305.546875 1337.074219 254.78125 C 1337.074219 231.140625 1349.757812 218.429688 1377.449219 218.429688 L 1437.730469 218.429688 C 1437.730469 184.679688 1430.226562 177.769531 1407.71875 177.769531 C 1382.039062 177.769531 1361.566406 177.484375 1339.9375 180.941406 L 1339.9375 161.605469 C 1363.011719 154.667969 1389.824219 153.535156 1413.777344 153.535156 C 1452.707031 153.535156 1464.257812 173.4375 1464.257812 232.273438 C 1464.257812 300.082031 1444.949219 309.285156 1397.328125 309.285156 " clip-rule="nonzero"/></clipPath><clipPath id="0ac2724c26"><path d="M 0 0.445312 L 127.496094 0.445312 L 127.496094 156.285156 L 0 156.285156 Z M 0 0.445312 " clip-rule="nonzero"/></clipPath><clipPath id="cd5d681cf1"><path d="M 43.335938 88.789062 C 31.785156 88.789062 26.605469 93.402344 26.605469 102.066406 C 26.605469 129.472656 31.503906 132.359375 59.476562 132.359375 C 89.203125 132.359375 101.011719 131.765625 100.730469 88.8125 Z M 60.355469 156.285156 C 21.988281 156.285156 0.0742188 152.546875 0.0742188 101.78125 C 0.0742188 78.140625 12.757812 65.429688 40.449219 65.429688 L 100.730469 65.429688 C 100.730469 31.679688 93.226562 24.769531 70.71875 24.769531 C 45.039062 24.769531 24.566406 24.484375 2.9375 27.941406 L 2.9375 8.605469 C 26.011719 1.667969 52.824219 0.535156 76.777344 0.535156 C 115.707031 0.535156 127.257812 20.4375 127.257812 79.273438 C 127.257812 147.082031 107.949219 156.285156 60.328125 156.285156 " clip-rule="nonzero"/></clipPath><clipPath id="7772ade9d8"><rect x="0" width="128" y="0" height="157"/></clipPath><clipPath id="5c8bf8fae6"><path d="M 1203.222656 81.949219 L 1269.457031 81.949219 L 1269.457031 308 L 1203.222656 308 Z M 1203.222656 81.949219 " clip-rule="nonzero"/></clipPath><clipPath id="6c54d2f2ca"><path d="M 1203.261719 81.988281 L 1229.792969 81.988281 L 1229.792969 251.585938 C 1229.792969 275.820312 1236.136719 281.285156 1245.367188 283.890625 C 1245.367188 283.890625 1267.28125 289.949219 1269.292969 289.949219 L 1269.292969 307.839844 L 1241.910156 307.839844 C 1218.835938 307.839844 1203.261719 293.996094 1203.261719 253.335938 Z M 1203.261719 81.988281 " clip-rule="nonzero"/></clipPath><clipPath id="969f5db953"><path d="M 0.222656 0.949219 L 66.335938 0.949219 L 66.335938 226.847656 L 0.222656 226.847656 Z M 0.222656 0.949219 " clip-rule="nonzero"/></clipPath><clipPath id="4eea864f66"><path d="M 0.261719 0.988281 L 26.792969 0.988281 L 26.792969 170.585938 C 26.792969 194.820312 33.136719 200.285156 42.367188 202.890625 C 42.367188 202.890625 64.28125 208.949219 66.292969 208.949219 L 66.292969 226.839844 L 38.910156 226.839844 C 15.835938 226.839844 0.261719 212.996094 0.261719 172.335938 Z M 0.261719 0.988281 " clip-rule="nonzero"/></clipPath><clipPath id="4457d3e9ae"><rect x="0" width="67" y="0" height="227"/></clipPath><clipPath id="33fcd5d79f"><path d="M 1285 104.6875 L 1317.898438 104.6875 L 1317.898438 308 L 1285 308 Z M 1285 104.6875 " clip-rule="nonzero"/></clipPath><clipPath id="056037e773"><path d="M 1287.496094 154.667969 L 1314.023438 154.667969 L 1314.023438 307.839844 L 1287.496094 307.839844 Z M 1285.175781 112.28125 C 1285.175781 107.667969 1287.496094 104.78125 1292.109375 104.78125 L 1310.855469 104.78125 C 1315.183594 104.78125 1317.480469 108.234375 1317.480469 112.28125 L 1317.480469 130.460938 C 1317.480469 134.789062 1314.875 137.109375 1310.855469 137.109375 L 1292.109375 137.109375 C 1288.0625 137.109375 1285.175781 134.507812 1285.175781 130.460938 Z M 1285.175781 112.28125 " clip-rule="nonzero"/></clipPath><clipPath id="f88a275240"><path d="M 0.160156 0.777344 L 32.527344 0.777344 L 32.527344 203.847656 L 0.160156 203.847656 Z M 0.160156 0.777344 " clip-rule="nonzero"/></clipPath><clipPath id="72f8d08f33"><path d="M 2.496094 50.667969 L 29.023438 50.667969 L 29.023438 203.839844 L 2.496094 203.839844 Z M 0.175781 8.28125 C 0.175781 3.667969 2.496094 0.78125 7.109375 0.78125 L 25.855469 0.78125 C 30.183594 0.78125 32.480469 4.234375 32.480469 8.28125 L 32.480469 26.460938 C 32.480469 30.789062 29.875 33.109375 25.855469 33.109375 L 7.109375 33.109375 C 3.0625 33.109375 0.175781 30.507812 0.175781 26.460938 Z M 0.175781 8.28125 " clip-rule="nonzero"/></clipPath><clipPath id="f344748672"><rect x="0" width="33" y="0" height="204"/></clipPath><clipPath id="f7e5d0f1b1"><rect x="0" width="1479" y="0" height="416"/></clipPath></defs><g transform="matrix(1, 0, 0, 1, 11, 35)"><g clip-path="url(#f7e5d0f1b1)"><g clip-path="url(#317595f0be)"><g transform="matrix(1, 0, 0, 1, 13, 385)"><g clip-path="url(#1601d4bd1e)"><g clip-path="url(#8a4db2c7fa)"><path fill="#86949a" d="M 0.734375 0.511719 L 191.546875 0.511719 L 191.546875 8.199219 L 0.734375 8.199219 Z M 0.734375 0.511719 " fill-opacity="1" fill-rule="nonzero"/></g></g></g></g><g clip-path="url(#a33cd1d33b)"><g clip-path="url(#5c75b02c2a)"><g transform="matrix(1, 0, 0, 1, 254, 361)"><g clip-path="url(#96a308fefa)"><g clip-path="url(#63c1bf7851)"><g clip-path="url(#1b84cb5ee9)"><path fill="#86949a" d="M 0.152344 0.269531 L 42.714844 0.269531 L 42.714844 54.46875 L 0.152344 54.46875 Z M 0.152344 0.269531 " fill-opacity="1" fill-rule="nonzero"/></g></g></g></g></g></g><g clip-path="url(#8f2b6a82b1)"><g clip-path="url(#3573172600)"><g transform="matrix(1, 0, 0, 1, 340, 361)"><g clip-path="url(#6df1534b9c)"><g clip-path="url(#d62a3b1a1d)"><g clip-path="url(#a8ccaf2f9b)"><path fill="#86949a" d="M 0.347656 0.769531 L 42.609375 0.769531 L 42.609375 54.417969 L 0.347656 54.417969 Z M 0.347656 0.769531 " fill-opacity="1" fill-rule="nonzero"/></g></g></g></g></g></g><g clip-path="url(#d30e857098)"><g clip-path="url(#9c59d19096)"><g transform="matrix(1, 0, 0, 1, 424, 361)"><g clip-path="url(#35643a2ab5)"><g clip-path="url(#36929f510e)"><g clip-path="url(#49cef598db)"><path fill="#86949a" d="M 0.265625 0.769531 L 42.523438 0.769531 L 42.523438 54.414062 L 0.265625 54.414062 Z M 0.265625 0.769531 " fill-opacity="1" fill-rule="nonzero"/></g></g></g></g></g></g><g clip-path="url(#132707474c)"><g clip-path="url(#b8e3754ef6)"><g transform="matrix(1, 0, 0, 1, 510, 345)"><g clip-path="url(#000bb7376d)"><g clip-path="url(#0091ee8e79)"><g clip-path="url(#409c597acf)"><path fill="#86949a" d="M 0.15625 0.894531 L 9.78125 0.894531 L 9.78125 69.953125 L 0.15625 69.953125 Z M 0.15625 0.894531 " fill-opacity="1" fill-rule="nonzero"/></g></g></g></g></g></g><g clip-path="url(#63f13b69ca)"><g clip-path="url(#7f0d729acf)"><g transform="matrix(1, 0, 0, 1, 564, 361)"><g clip-path="url(#f5fdf139ba)"><g clip-path="url(#d85349ddb6)"><g clip-path="url(#4d31de8dcf)"><path fill="#86949a" d="M 0.414062 0.769531 L 41.085938 0.769531 L 41.085938 54.464844 L 0.414062 54.464844 Z M 0.414062 0.769531 " fill-opacity="1" fill-rule="nonzero"/></g></g></g></g></g></g><g clip-path="url(#58b750aaec)"><g clip-path="url(#5e0cbaf15b)"><g transform="matrix(1, 0, 0, 1, 648, 362)"><g clip-path="url(#059b2921e5)"><g clip-path="url(#8bcf4edcd9)"><g clip-path="url(#2ec6770bcf)"><path fill="#86949a" d="M 0.726562 0.261719 L 43.78125 0.261719 L 43.78125 53.746094 L 0.726562 53.746094 Z M 0.726562 0.261719 " fill-opacity="1" fill-rule="nonzero"/></g></g></g></g></g></g><g clip-path="url(#bd30a7667f)"><g clip-path="url(#5217253519)"><g transform="matrix(1, 0, 0, 1, 738, 361)"><g clip-path="url(#fc885f5b4b)"><g clip-path="url(#701381ad76)"><g clip-path="url(#ed3fedfe2f)"><path fill="#86949a" d="M 0.390625 0.667969 L 34.71875 0.667969 L 34.71875 53.902344 L 0.390625 53.902344 Z M 0.390625 0.667969 " fill-opacity="1" fill-rule="nonzero"/></g></g></g></g></g></g><g clip-path="url(#5a2afbf24d)"><g clip-path="url(#7e36053fe7)"><g transform="matrix(1, 0, 0, 1, 813, 361)"><g clip-path="url(#ec21fa93cf)"><g clip-path="url(#c5f44c5fb3)"><g clip-path="url(#26dad743e4)"><path fill="#86949a" d="M 0.378906 0.269531 L 42.9375 0.269531 L 42.9375 54.464844 L 0.378906 54.464844 Z M 0.378906 0.269531 " fill-opacity="1" fill-rule="nonzero"/></g></g></g></g></g></g><g clip-path="url(#a1bd6be9b7)"><g clip-path="url(#9ca85e0e0d)"><g transform="matrix(1, 0, 0, 1, 898, 362)"><g clip-path="url(#11ff80e529)"><g clip-path="url(#1f727924bf)"><g clip-path="url(#50b505b49e)"><path fill="#86949a" d="M 0.578125 0.261719 L 39.90625 0.261719 L 39.90625 52.804688 L 0.578125 52.804688 Z M 0.578125 0.261719 " fill-opacity="1" fill-rule="nonzero"/></g></g></g></g></g></g><g clip-path="url(#5413a746d1)"><g clip-path="url(#9c175f9105)"><g transform="matrix(1, 0, 0, 1, 980, 345)"><g clip-path="url(#b3ebc0ca41)"><g clip-path="url(#6ae2853c71)"><g clip-path="url(#07397f5b14)"><path fill="#86949a" d="M 0.511719 0.894531 L 10.136719 0.894531 L 10.136719 69.9375 L 0.511719 69.9375 Z M 0.511719 0.894531 " fill-opacity="1" fill-rule="nonzero"/></g></g></g></g></g></g><g clip-path="url(#36630395d2)"><g clip-path="url(#a919a1d97c)"><g transform="matrix(1, 0, 0, 1, 333, 14)"><g clip-path="url(#07543d425c)"><g clip-path="url(#1613a81681)"><g clip-path="url(#9899961c3d)"><rect x="-890" width="2592" fill="#86949a" y="-226.449997" height="842.399984" fill-opacity="1"/></g></g></g></g></g></g><g clip-path="url(#621f4582e9)"><g clip-path="url(#f123e0c11c)"><g transform="matrix(1, 0, 0, 1, 419, 38)"><g clip-path="url(#6ac822b15c)"><g clip-path="url(#e9aaef24ef)"><g clip-path="url(#f3c988a5c6)"><rect x="-976" width="2592" fill="#86949a" y="-250.449997" height="842.399984" fill-opacity="1"/></g></g></g></g></g></g><g clip-path="url(#e25a889934)"><g clip-path="url(#20393b10fc)"><g transform="matrix(1, 0, 0, 1, 553, 38)"><g clip-path="url(#d93897a08f)"><g clip-path="url(#fa0ad89559)"><g clip-path="url(#a138f715c6)"><rect x="-1110" width="2592" fill="#86949a" y="-250.449997" height="842.399984" fill-opacity="1"/></g></g></g></g></g></g><g clip-path="url(#fafccc561c)"><g clip-path="url(#998684cdb8)"><g transform="matrix(1, 0, 0, 1, 621, 14)"><g clip-path="url(#abe1952b44)"><g clip-path="url(#06fac26468)"><g clip-path="url(#25c3662dbe)"><rect x="-1178" width="2592" fill="#86949a" y="-226.449997" height="842.399984" fill-opacity="1"/></g></g></g></g></g></g><g clip-path="url(#3b73d6002e)"><g clip-path="url(#bca314193a)"><g transform="matrix(1, 0, 0, 1, 651, 38)"><g clip-path="url(#fa01e6fdc5)"><g clip-path="url(#3ea122851a)"><g clip-path="url(#ed952484cd)"><rect x="-1208" width="2592" fill="#86949a" y="-250.449997" height="842.399984" fill-opacity="1"/></g></g></g></g></g></g><g clip-path="url(#a6600e6140)"><g clip-path="url(#96fd6fa89f)"><g transform="matrix(1, 0, 0, 1, 486, 39)"><g clip-path="url(#53545045f3)"><g clip-path="url(#34426a8d23)"><g clip-path="url(#e629a7bf28)"><rect x="-1043" width="2592" fill="#86949a" y="-251.449997" height="842.399984" fill-opacity="1"/></g></g></g></g></g></g><g clip-path="url(#fb1ff0ec6c)"><g clip-path="url(#46a0e0907d)"><g transform="matrix(1, 0, 0, 1, 335, 152)"><g clip-path="url(#6cd6b5e1dc)"><g clip-path="url(#36bfd1c339)"><g clip-path="url(#e73a2da657)"><rect x="-892" width="2592" fill="#003667" y="-364.449997" height="842.399984" fill-opacity="1"/></g></g></g></g></g></g><g clip-path="url(#daaa6f0b19)"><g clip-path="url(#90bd373266)"><g transform="matrix(1, 0, 0, 1, 583, 153)"><g clip-path="url(#e3c988f793)"><g clip-path="url(#5f7fe72585)"><g clip-path="url(#afc9ba8ada)"><rect x="-1140" width="2592" fill="#003667" y="-365.449997" height="842.399984" fill-opacity="1"/></g></g></g></g></g></g><g clip-path="url(#f061f7af37)"><g clip-path="url(#63d68c832f)"><g transform="matrix(1, 0, 0, 1, 734, 152)"><g clip-path="url(#7c42682128)"><g clip-path="url(#2e9f191f41)"><g clip-path="url(#034e8ee66b)"><rect x="-1291" width="2592" fill="#003667" y="-364.449997" height="842.399984" fill-opacity="1"/></g></g></g></g></g></g><g clip-path="url(#b888aefbfb)"><g clip-path="url(#25b55529b0)"><g transform="matrix(1, 0, 0, 1, 883, 81)"><g clip-path="url(#db7976c401)"><g clip-path="url(#a547cc8f26)"><g clip-path="url(#c05136dc71)"><rect x="-1440" width="2592" fill="#003667" y="-293.449997" height="842.399984" fill-opacity="1"/></g></g></g></g></g></g><g clip-path="url(#2f7cccf956)"><g clip-path="url(#e7bbea8ea4)"><g transform="matrix(1, 0, 0, 1, 13, 14)"><g clip-path="url(#4a1e95455a)"><g clip-path="url(#96efbb4779)"><g clip-path="url(#b4c1c4de71)"><rect x="-570" width="2592" fill="#003667" y="-226.449997" height="842.399984" fill-opacity="1"/></g></g></g></g></g></g><g clip-path="url(#b1a2c57ffd)"><g clip-path="url(#d5af3f95d6)"><g transform="matrix(1, 0, 0, 1, 1034, 361)"><g clip-path="url(#1d7c039f16)"><g clip-path="url(#cb0b3095d0)"><g clip-path="url(#547f6cd592)"><path fill="#86949a" d="M 0.761719 0.765625 L 47.191406 0.765625 L 47.191406 54.449219 L 0.761719 54.449219 Z M 0.761719 0.765625 " fill-opacity="1" fill-rule="nonzero"/></g></g></g></g></g></g><g clip-path="url(#73a3f5ced1)"><g clip-path="url(#f83711bcac)"><g transform="matrix(1, 0, 0, 1, 1040, 153)"><g clip-path="url(#b3b5b17e72)"><g clip-path="url(#5d34037a3a)"><g clip-path="url(#586dbdb51a)"><path fill="#003667" d="M 0.578125 0.234375 L 136.726562 0.234375 L 136.726562 156.058594 L 0.578125 156.058594 Z M 0.578125 0.234375 " fill-opacity="1" fill-rule="nonzero"/></g></g></g></g></g></g><g clip-path="url(#b63c7a17bd)"><g clip-path="url(#0e466964de)"><g transform="matrix(1, 0, 0, 1, 1126, 361)"><g clip-path="url(#308fe4b7b5)"><g clip-path="url(#f0b8a7547b)"><g clip-path="url(#3370339dd4)"><path fill="#86949a" d="M 0.8125 0.367188 L 43.867188 0.367188 L 43.867188 54.015625 L 0.8125 54.015625 Z M 0.8125 0.367188 " fill-opacity="1" fill-rule="nonzero"/></g></g></g></g></g></g><g clip-path="url(#3a58a27a96)"><g clip-path="url(#c0e308e46d)"><g transform="matrix(1, 0, 0, 1, 1214, 345)"><g clip-path="url(#7c415b4f43)"><g clip-path="url(#4afbf29f36)"><g clip-path="url(#bc42a7f4d7)"><path fill="#86949a" d="M 0.492188 0.894531 L 10.113281 0.894531 L 10.113281 69.941406 L 0.492188 69.941406 Z M 0.492188 0.894531 " fill-opacity="1" fill-rule="nonzero"/></g></g></g></g></g></g><g clip-path="url(#cb242c80cc)"><g transform="matrix(1, 0, 0, 1, 1269, 385)"><g clip-path="url(#01370ff316)"><g clip-path="url(#c1b21dacb3)"><path fill="#86949a" d="M 0.320312 0.511719 L 191.136719 0.511719 L 191.136719 8.199219 L 0.320312 8.199219 Z M 0.320312 0.511719 " fill-opacity="1" fill-rule="nonzero"/></g></g></g></g><g clip-path="url(#96598be3b8)"><g clip-path="url(#b27857ca8f)"><g transform="matrix(1, 0, 0, 1, 1337, 153)"><g clip-path="url(#7772ade9d8)"><g clip-path="url(#0ac2724c26)"><g clip-path="url(#cd5d681cf1)"><rect x="-1894" width="2592" fill="#003667" y="-365.449997" height="842.399984" fill-opacity="1"/></g></g></g></g></g></g><g clip-path="url(#5c8bf8fae6)"><g clip-path="url(#6c54d2f2ca)"><g transform="matrix(1, 0, 0, 1, 1203, 81)"><g clip-path="url(#4457d3e9ae)"><g clip-path="url(#969f5db953)"><g clip-path="url(#4eea864f66)"><rect x="-1760" width="2592" fill="#003667" y="-293.449997" height="842.399984" fill-opacity="1"/></g></g></g></g></g></g><g clip-path="url(#33fcd5d79f)"><g clip-path="url(#056037e773)"><g transform="matrix(1, 0, 0, 1, 1285, 104)"><g clip-path="url(#f344748672)"><g clip-path="url(#f88a275240)"><g clip-path="url(#72f8d08f33)"><rect x="-1842" width="2592" fill="#003667" y="-316.449997" height="842.399984" fill-opacity="1"/></g></g></g></g></g></g></g></g></svg>