<svg xmlns="http://www.w3.org/2000/svg" viewBox="0 0 32 32" width="32" height="32">
  
  <g transform="translate(6.134 27.200) scale(0.028382 -0.028382)">
    <path d="M343.82489013671875 -16Q279.81475830078125 -16 225.40231323242188 7.592620849609375Q170.9898681640625 31.18524169921875 130.08248901367188 76.27786254882812Q89.17510986328125 121.3704833984375 66.8502197265625 186.28799438476562Q44.52532958984375 251.20550537109375 44.52532958984375 334.020263671875Q44.52532958984375 416.3299560546875 67.93270874023438 480.99493408203125Q91.340087890625 545.659912109375 132.8299560546875 590.7525329589844Q174.31982421875 635.8451538085938 228.6497802734375 659.4377746582031Q282.979736328125 683.0303955078125 344.659912109375 683.0303955078125Q381.47467041015625 683.0303955078125 424.979736328125 674.3654174804688Q468.48480224609375 665.700439453125 509.83502197265625 637.5151977539062L520 481.3603515625H502.68017578125L438.7308349609375 649.8451538085938L487.86541748046875 638.3704833984375L491.86541748046875 613.3603515625Q453.84515380859375 642.04052734375 418.9225769042969 651.4580383300781Q384 660.8755493164062 349.979736328125 660.8755493164062Q293.44427490234375 660.8755493164062 245.50143432617188 623.5303955078125Q197.55859375 586.1852416992188 168.96090698242188 513.0101318359375Q140.36322021484375 439.83502197265625 140.36322021484375 332.3502197265625Q140.36322021484375 225.0303955078125 167.62588500976562 152.35528564453125Q194.8885498046875 79.68017578125 241.578857421875 42.917510986328125Q288.2691650390625 6.15484619140625 347.47467041015625 6.15484619140625Q379.6497802734375 6.15484619140625 418.5 15.31982421875Q457.3502197265625 24.48480224609375 495.20550537109375 54.50506591796875L494.54559326171875 28.659912109375L445.57598876953125 18.020263671875L508.52532958984375 189.31982421875H526.68017578125L516.5151977539062 30.020263671875Q475.49493408203125 4 432.0774230957031 -6.0Q388.659912109375 -16 343.82489013671875 -16Z" fill="#161413"/>
  </g>
  <rect x="22.042" y="24.384" width="2.560" height="2.560" fill="#161413"/>
</svg>
